<svg width="1024" height="1024" viewBox="0 0 1024 1024" fill="none" xmlns="http://www.w3.org/2000/svg">
<path d="M512 102C738.437 102 922 285.563 922 512C922 738.437 738.437 922 512 922C285.563 922 102 738.437 102 512C102 285.563 285.563 102 512 102ZM512 840C492.67 840 477 855.67 477 875C477 894.33 492.67 910 512 910C531.33 910 547 894.33 547 875C547 855.67 531.33 840 512 840ZM512 739C492.67 739 477 754.67 477 774C477 793.33 492.67 809 512 809C531.33 809 547 793.33 547 774C547 754.67 531.33 739 512 739ZM512 633C492.67 633 477 648.67 477 668C477 687.33 492.67 703 512 703C531.33 703 547 687.33 547 668C547 648.67 531.33 633 512 633Z" fill="#008E4E" style="fill:#008E4E;fill:color(display-p3 0.0000 0.5569 0.3059);fill-opacity:1;"/>
</svg>
