<svg width="1024" height="1024" viewBox="0 0 1024 1024" fill="none" xmlns="http://www.w3.org/2000/svg">
<path d="M512 196C686.522 196 828 337.478 828 512C828 686.522 686.522 828 512 828C337.478 828 196 686.522 196 512C196 337.478 337.478 196 512 196ZM512 739C492.67 739 477 754.67 477 774C477 793.33 492.67 809 512 809C531.33 809 547 793.33 547 774C547 754.67 531.33 739 512 739ZM512 633C492.67 633 477 648.67 477 668C477 687.33 492.67 703 512 703C531.33 703 547 687.33 547 668C547 648.67 531.33 633 512 633Z" fill="#004E8F" style="fill:#004E8F;fill:color(display-p3 0.0000 0.3059 0.5608);fill-opacity:1;"/>
</svg>
